<svg xmlns="http://www.w3.org/2000/svg" width="512" height="512" viewBox="0 0 512 512" fill="none">
  <defs>
    <linearGradient id="bg" x1="72" y1="56" x2="454" y2="456" gradientUnits="userSpaceOnUse">
      <stop stop-color="#121212" />
      <stop offset="1" stop-color="#050505" />
    </linearGradient>
    <radialGradient id="glow" cx="0" cy="0" r="1" gradientUnits="userSpaceOnUse" gradientTransform="translate(356 164) rotate(132.706) scale(208.586)">
      <stop stop-color="#D4FF00" stop-opacity=".18" />
      <stop offset="1" stop-color="#D4FF00" stop-opacity="0" />
    </radialGradient>
  </defs>

  <rect width="512" height="512" rx="144" fill="#020202" />
  <rect x="18" y="18" width="476" height="476" rx="126" fill="url(#bg)" stroke="#2B2B2B" stroke-width="4" />
  <circle cx="356" cy="164" r="112" fill="url(#glow)" />

  <g transform="translate(94 94) scale(13.5)" stroke="#D4FF00" stroke-width="2.2" stroke-linecap="round" stroke-linejoin="round">
    <path d="M19 7V4a1 1 0 0 0-1-1H5a2 2 0 0 0 0 4h15a1 1 0 0 1 1 1v4h-3a2 2 0 0 0 0 4h3a1 1 0 0 0 1-1v-2a1 1 0 0 0-1-1" />
    <path d="M3 5v14a2 2 0 0 0 2 2h15a1 1 0 0 0 1-1v-4" />
  </g>
</svg>
